
<svg width="22px" height="23px" viewBox="0 0 22 23" version="1.1" xmlns="http://www.w3.org/2000/svg" xmlns:xlink="http://www.w3.org/1999/xlink">
    <!-- Generator: Sketch 46.2 (44496) - http://www.bohemiancoding.com/sketch -->
    <desc>Created with Sketch.</desc>
    <defs></defs>
    <g id="Page-1" stroke="none" stroke-width="1" fill="none" fill-rule="evenodd">
        <g id="7_ExperiencePage" transform="translate(-335.000000, -418.000000)" fill="#4A4A4A">
            <g id="Calendar" transform="translate(335.000000, 418.000000)">
                <g id="Page-1">
                    <g id="Group-3" transform="translate(0.000000, 1.920619)">
                        <path d="M19.8947419,0.165931959 C20.9592581,0.165931959 21.8106344,1.01954021 21.8106344,2.08655052 L21.8106344,18.7082 C21.8106344,19.7752103 20.9592581,20.6290557 19.8947419,20.6290557 L1.91624731,20.6290557 C0.851731183,20.6290557 0.00011827957,19.7752103 0.00011827957,18.7082 L0.00011827957,2.08655052 C0.00011827957,1.01954021 0.851731183,0.165931959 1.91624731,0.165931959 L3.80872043,0.165931959 L3.80872043,2.27624124 C3.80872043,3.17727216 4.5418172,3.91232371 5.44097849,3.91232371 C6.33990323,3.91232371 7.073,3.17727216 7.073,2.27624124 L7.073,0.165931959 L14.761172,0.165931959 L14.761172,2.27624124 C14.761172,3.17727216 15.4947419,3.91232371 16.3936667,3.91232371 C17.2925914,3.91232371 18.0256882,3.17727216 18.0256882,2.27624124 L18.0256882,0.165931959 L19.8947419,0.165931959 Z M20.699043,18.7082 L20.7226989,18.7082 L20.7226989,7.39789072 L1.11194624,7.39789072 L1.11194624,18.7082 C1.11194624,19.1587155 1.46678495,19.5143856 1.91624731,19.5143856 L19.8947419,19.5143856 C20.3442043,19.5143856 20.699043,19.1587155 20.699043,18.7082 Z" id="Combined-Shape"></path>
                    </g>
                    <path d="M5.44086022,4.97933402 C5.89032258,4.97933402 6.24516129,4.62366392 6.24516129,4.17314845 L6.24516129,0.806138144 C6.24516129,0.35562268 5.89032258,-4.74226804e-05 5.44086022,-4.74226804e-05 C4.99139785,-4.74226804e-05 4.63655914,0.35562268 4.63655914,0.806138144 L4.63655914,4.17314845 C4.63655914,4.62366392 4.99139785,4.97933402 5.44086022,4.97933402" id="Fill-4"></path>
                    <path d="M16.3936194,4.97933402 C16.8428452,4.97933402 17.1976839,4.62366392 17.1976839,4.17314845 L17.1976839,0.806138144 C17.1976839,0.35562268 16.8428452,-4.74226804e-05 16.3936194,-4.74226804e-05 C15.944157,-4.74226804e-05 15.5893183,0.35562268 15.5893183,0.806138144 L15.5893183,4.17314845 C15.6129742,4.62366392 15.9678129,4.97933402 16.3936194,4.97933402" id="Fill-7"></path>
                    <path d="M7.4516129,13.2072165 L9.74623656,13.2072165 C10.172043,13.2072165 10.5268817,12.8515464 10.5268817,12.4247423 L10.5268817,10.9309278 C10.5268817,10.5041237 10.172043,10.1484536 9.74623656,10.1484536 L7.4516129,10.1484536 C7.02580645,10.1484536 6.67096774,10.5041237 6.67096774,10.9309278 L6.67096774,12.4247423 C6.67096774,12.8515464 7.02580645,13.2072165 7.4516129,13.2072165" id="Fill-10"></path>
                    <path d="M12.0408366,13.2072165 L14.3354602,13.2072165 C14.7612667,13.2072165 15.1161054,12.8515464 15.1161054,12.4247423 L15.1161054,10.9309278 C15.1161054,10.5041237 14.7612667,10.1484536 14.3354602,10.1484536 L12.0408366,10.1484536 C11.6150301,10.1484536 11.2601914,10.5041237 11.2601914,10.9309278 L11.2601914,12.4247423 C11.2601914,12.8515464 11.6150301,13.2072165 12.0408366,13.2072165" id="Fill-12"></path>
                    <path d="M16.6537398,13.2072165 L18.9483634,13.2072165 C19.3741699,13.2072165 19.7290086,12.8515464 19.7290086,12.4247423 L19.7290086,10.9309278 C19.7290086,10.5041237 19.3741699,10.1484536 18.9483634,10.1484536 L16.6537398,10.1484536 C16.2279333,10.1484536 15.8730946,10.5041237 15.8730946,10.9309278 L15.8730946,12.4247423 C15.8730946,12.8515464 16.204514,13.2072165 16.6537398,13.2072165" id="Fill-14"></path>
                    <path d="M2.86238925,16.9060907 L5.1570129,16.9060907 C5.58281935,16.9060907 5.93765806,16.5504206 5.93765806,16.1236165 L5.93765806,14.6298021 C5.93765806,14.2032351 5.58281935,13.8475649 5.1570129,13.8475649 L2.86238925,13.8475649 C2.4365828,13.8475649 2.08174409,14.2032351 2.08174409,14.6298021 L2.08174409,16.1236165 C2.08174409,16.5504206 2.41292688,16.9060907 2.86238925,16.9060907" id="Fill-16"></path>
                    <path d="M7.4516129,16.9060907 L9.74623656,16.9060907 C10.172043,16.9060907 10.5268817,16.5504206 10.5268817,16.1236165 L10.5268817,14.6298021 C10.5268817,14.2032351 10.172043,13.8475649 9.74623656,13.8475649 L7.4516129,13.8475649 C7.02580645,13.8475649 6.67096774,14.2032351 6.67096774,14.6298021 L6.67096774,16.1236165 C6.67096774,16.5504206 7.02580645,16.9060907 7.4516129,16.9060907" id="Fill-18"></path>
                    <path d="M12.0408366,16.9060907 L14.3354602,16.9060907 C14.7612667,16.9060907 15.1161054,16.5504206 15.1161054,16.1236165 L15.1161054,14.6298021 C15.1161054,14.2032351 14.7612667,13.8475649 14.3354602,13.8475649 L12.0408366,13.8475649 C11.6150301,13.8475649 11.2601914,14.2032351 11.2601914,14.6298021 L11.2601914,16.1236165 C11.2601914,16.5504206 11.6150301,16.9060907 12.0408366,16.9060907" id="Fill-20"></path>
                    <path d="M16.6537398,16.9060907 L18.9483634,16.9060907 C19.3741699,16.9060907 19.7290086,16.5504206 19.7290086,16.1236165 L19.7290086,14.6298021 C19.7290086,14.2032351 19.3741699,13.8475649 18.9483634,13.8475649 L16.6537398,13.8475649 C16.2279333,13.8475649 15.8730946,14.2032351 15.8730946,14.6298021 L15.8730946,16.1236165 C15.8730946,16.5504206 16.204514,16.9060907 16.6537398,16.9060907" id="Fill-22"></path>
                    <path d="M2.86238925,20.6052021 L5.1570129,20.6052021 C5.58281935,20.6052021 5.93765806,20.249532 5.93765806,19.8227278 L5.93765806,18.3286763 C5.93765806,17.9021093 5.58281935,17.5464392 5.1570129,17.5464392 L2.86238925,17.5464392 C2.4365828,17.5464392 2.08174409,17.9021093 2.08174409,18.3286763 L2.08174409,19.8227278 C2.08174409,20.249532 2.41292688,20.6052021 2.86238925,20.6052021" id="Fill-24"></path>
                    <path d="M7.4516129,20.6052021 L9.74623656,20.6052021 C10.172043,20.6052021 10.5268817,20.249532 10.5268817,19.8227278 L10.5268817,18.3286763 C10.5268817,17.9021093 10.172043,17.5464392 9.74623656,17.5464392 L7.4516129,17.5464392 C7.02580645,17.5464392 6.67096774,17.9021093 6.67096774,18.3286763 L6.67096774,19.8227278 C6.67096774,20.249532 7.02580645,20.6052021 7.4516129,20.6052021" id="Fill-26"></path>
                    <path d="M12.0408366,20.6052021 L14.3354602,20.6052021 C14.7612667,20.6052021 15.1161054,20.249532 15.1161054,19.8227278 L15.1161054,18.3286763 C15.1161054,17.9021093 14.7612667,17.5464392 14.3354602,17.5464392 L12.0408366,17.5464392 C11.6150301,17.5464392 11.2601914,17.9021093 11.2601914,18.3286763 L11.2601914,19.8227278 C11.2601914,20.249532 11.6150301,20.6052021 12.0408366,20.6052021" id="Fill-28"></path>
                </g>
            </g>
        </g>
    </g>
</svg>