<?xml version="1.0" encoding="UTF-8"?>
<svg width="230px" height="61px" viewBox="0 0 230 61" version="1.1" xmlns="http://www.w3.org/2000/svg" xmlns:xlink="http://www.w3.org/1999/xlink">
    <!-- Generator: Sketch 47.1 (45422) - http://www.bohemiancoding.com/sketch -->
    <title>Logo</title>
    <desc>Created with Sketch.</desc>
    <defs>
        <polygon id="path-1" points="9.0724542e-05 29.9315068 187.867482 29.9315068 187.867482 0.42461924 9.0724542e-05 0.42461924"></polygon>
        <polygon id="path-3" points="42.3790418 0.203458165 42.3790418 39.7150611 0.0675570533 39.7150611 0.0675570533 0.203458165 42.3790418 0.203458165"></polygon>
    </defs>
    <g id="Page-1" stroke="none" stroke-width="1" fill="none" fill-rule="evenodd">
        <g id="Desktop-–-Who" transform="translate(-607.000000, -58.000000)">
            <g id="Logo" transform="translate(607.000000, 58.000000)">
                <g id="Group-3" transform="translate(0.000000, 30.719178)">
                    <mask id="mask-2" fill="white">
                        <use xlink:href="#path-1"></use>
                    </mask>
                    <g id="Clip-2"></g>
                    <path d="M180.301056,9.78592476 C177.680024,9.78592476 175.956711,10.7967934 175.094828,12.1446182 L175.094828,10.1609756 L169.926251,10.1609756 L169.926251,29.5207649 L175.394672,29.5207649 L175.394672,18.7730864 C175.394672,16.4506736 176.818594,14.8792695 178.99054,14.8792695 C181.088091,14.8792695 182.399061,16.2647355 182.399061,18.7354453 L182.399061,29.5207649 L187.867482,29.5207649 L187.867482,17.6869356 C187.867482,12.6693266 184.75926,9.78592476 180.301056,9.78592476 L180.301056,9.78592476 Z M156.442769,14.467031 C159.252055,14.467031 161.199457,16.4506736 161.199457,19.8596908 C161.199457,23.2292529 159.252055,25.214256 156.442769,25.214256 C153.633484,25.214256 151.686081,23.2292529 151.686081,19.8596908 C151.686081,16.4506736 153.633484,14.467031 156.442769,14.467031 L156.442769,14.467031 Z M156.442769,9.78592476 C150.524354,9.78592476 146.142358,13.755931 146.142358,19.8596908 C146.142358,25.9258096 150.524354,29.9316429 156.442769,29.9316429 C162.361185,29.9316429 166.74318,25.9258096 166.74318,19.8596908 C166.74318,13.755931 162.361185,9.78592476 156.442769,9.78592476 L156.442769,9.78592476 Z M133.348837,14.467031 C136.157669,14.467031 138.104618,16.4506736 138.104618,19.8596908 C138.104618,23.2292529 136.157669,25.214256 133.348837,25.214256 C130.539098,25.214256 128.591242,23.2292529 128.591242,19.8596908 C128.591242,16.4506736 130.539098,14.467031 133.348837,14.467031 L133.348837,14.467031 Z M133.348837,9.78592476 C127.430875,9.78592476 123.04888,13.755931 123.04888,19.8596908 C123.04888,25.9258096 127.430875,29.9316429 133.348837,29.9316429 C139.266799,29.9316429 143.648341,25.9258096 143.648341,19.8596908 C143.648341,13.755931 139.266799,9.78592476 133.348837,9.78592476 L133.348837,9.78592476 Z M114.022695,29.5194044 L119.490663,29.5194044 L119.490663,0.42461924 L114.022695,0.42461924 L114.022695,29.5194044 Z M103.981756,29.5194044 L109.449725,29.5194044 L109.449725,0.42461924 L103.981756,0.42461924 L103.981756,29.5194044 Z M94.0034177,21.731317 L94.0034177,22.5544335 C94.0034177,24.6142654 92.5046482,25.7008698 90.5200489,25.7008698 C89.2086256,25.7008698 88.2723484,25.214256 88.2723484,23.9408065 C88.2723484,22.5544335 89.4336225,21.9934445 91.0816338,21.9190692 L94.0034177,21.731317 Z M91.4191291,9.78592476 C86.4369909,9.78592476 83.3278608,13.3065049 83.3278608,16.7132546 L88.7971898,16.9381944 C88.7971898,15.6647448 89.6209687,14.3912952 91.4935232,14.3912952 C93.1791852,14.3912952 94.0034177,15.439805 94.0034177,17.387167 L94.0034177,18.1368152 L90.5576996,18.3241138 C86.4369909,18.510959 82.803473,19.8968785 82.803473,24.2033874 C82.803473,27.9475468 85.3510181,29.9316429 89.2462763,29.9316429 C91.4558725,29.9316429 93.1043375,29.0708853 94.1912175,27.9475468 L94.1912175,29.5207649 L99.4713858,29.5207649 L99.4713858,17.5749192 C99.4713858,12.4824814 96.6249033,9.78592476 91.4191291,9.78592476 L91.4191291,9.78592476 Z M69.8974532,14.467031 C72.6318909,14.467031 74.5792932,16.4139395 74.5792932,19.8596908 C74.5792932,23.3040817 72.6318909,25.214256 69.8974532,25.214256 C67.2011199,25.214256 65.3281117,23.4170051 65.3281117,20.2705688 L65.3281117,19.4098112 C65.3281117,16.3014696 67.2011199,14.467031 69.8974532,14.467031 L69.8974532,14.467031 Z M65.3281117,0.42461924 L59.8601435,0.42461924 L59.8601435,29.5207649 L65.0291743,29.5207649 L65.0291743,27.5353083 C66.0402993,28.846399 68.0625494,29.9316429 70.75979,29.9316429 C76.2654088,29.9316429 80.1221091,25.9258096 80.1221091,19.8596908 C80.1221091,13.755931 76.2654088,9.78592476 70.75979,9.78592476 C68.2870926,9.78592476 66.3396903,10.6852305 65.3281117,11.8457566 L65.3281117,0.42461924 Z M45.2185633,14.467031 C47.915804,14.467031 49.7883585,16.3014696 49.7883585,19.4098112 L49.7883585,20.2705688 C49.7883585,23.4170051 47.915804,25.214256 45.2185633,25.214256 C42.4841256,25.214256 40.5362697,23.3040817 40.5362697,19.8596908 C40.5362697,16.4139395 42.4841256,14.467031 45.2185633,14.467031 L45.2185633,14.467031 Z M55.218676,29.5207649 L55.218676,0.42461924 L49.7883585,0.42461924 L49.7883585,11.8457566 C48.7772335,10.6852305 46.8289239,9.78592476 44.3203904,9.78592476 C38.8510613,9.78592476 34.9939074,13.755931 34.9939074,19.8596908 C34.9939074,25.9258096 38.8510613,29.9316429 44.3203904,29.9316429 C47.0539208,29.9316429 49.0766245,28.846399 50.0877495,27.5353083 L50.0877495,29.5207649 L55.218676,29.5207649 Z M22.8540565,14.0547925 C25.3263002,14.0547925 26.5247714,15.589916 26.6377235,17.9495165 L18.8472071,17.9495165 C18.9969026,15.4783532 20.5324154,14.0547925 22.8540565,14.0547925 L22.8540565,14.0547925 Z M32.143796,21.582113 L32.143796,19.4098112 C32.143796,13.3804266 28.4726274,9.78592476 22.8917072,9.78592476 C17.1238944,9.78592476 13.0408364,13.6058199 13.0408364,19.8596908 C13.0408364,26.0750136 17.1238944,29.9316429 23.0418563,29.9316429 C27.5735472,29.9316429 31.2819128,27.3112755 31.9564498,23.6414914 L26.4499237,23.3789104 C26.0380343,24.7276423 24.8019124,25.5135711 22.8917072,25.5135711 C20.4203706,25.5135711 18.9592519,23.9779941 18.8472071,21.582113 L32.143796,21.582113 Z M10.5998926,9.97322343 C7.64091165,9.97322343 6.10539878,11.0961084 5.28116631,12.369558 L5.28116631,10.1609756 L9.0724542e-05,10.1609756 L9.0724542e-05,29.5207649 L5.46896612,29.5207649 L5.46896612,19.7095798 C5.46896612,17.0506643 7.45356547,15.2529598 10.5998926,15.2529598 L10.9528111,15.2515993 L10.9509966,9.97821202 L10.5998926,9.97322343 Z" id="Fill-1" fill="#FFFFFF" mask="url(#mask-2)"></path>
                </g>
                <path d="M191.467782,21.1411019 C191.467782,10.685809 199.953672,3.63847602 208.733104,3.63847602 C217.512081,3.63847602 225.998426,10.685809 225.998426,21.1411019 C225.998426,22.8740085 225.763502,24.4912086 225.354089,25.9931507 C226.81816,23.5090488 227.636986,20.6796213 227.636986,17.4447726 C227.636986,7.5088135 219.150642,0 208.733104,0 C198.315112,0 189.828767,7.5088135 189.828767,17.4447726 C189.828767,20.6796213 190.648956,23.5090488 192.112119,25.9931507 C191.701797,24.4912086 191.467782,22.8740085 191.467782,21.1411019" id="Fill-4" fill="#FFFFFF"></path>
                <g id="Group-8" transform="translate(187.465753, 17.328767)">
                    <mask id="mask-4" fill="white">
                        <use xlink:href="#path-3"></use>
                    </mask>
                    <g id="Clip-7"></g>
                    <path d="M42.3791776,4.08454705 C42.3791776,2.73196338 42.2624346,1.43918007 42.0294013,0.203458165 C42.1465967,12.3748852 32.529332,19.0775467 21.2233673,25.5442022 C9.9164976,19.0775467 0.300137934,12.3748852 0.417333358,0.203458165 C0.184299985,1.43918007 0.0675570533,2.73196338 0.0675570533,4.08454705 C0.0675570533,16.548585 10.7332456,22.7226296 18.250495,27.4852032 C15.1622372,29.6603841 13.0056604,31.9533399 13.0056604,35.3053553 C13.0056604,36.9510064 13.5305511,38.4802522 14.4047656,39.7150611 C14.1129083,39.1855312 14.0540843,38.5382266 14.0540843,37.891835 C14.0540843,33.8345404 19.0088715,30.7769618 21.2233673,29.4850915 C23.4378631,30.7769618 28.3917453,33.8345404 28.3917453,37.891835 C28.3917453,38.5382266 28.3338264,39.1855312 28.0424215,39.7150611 C28.9161835,38.4802522 29.4410742,36.9510064 29.4410742,35.3053553 C29.4410742,31.9533399 27.2849499,29.6603841 24.1962397,27.4852032 C31.713489,22.7226296 42.3791776,16.548585 42.3791776,4.08454705" id="Fill-6" fill="#FFFFFF" mask="url(#mask-4)"></path>
                </g>
                <path d="M208.339041,56.6245461 C205.807692,56.6245461 203.909627,54.974707 203.680073,52.7739726 C203.333955,53.4468147 203.219178,54.1789693 203.219178,54.974707 C203.219178,57.9692812 205.290079,59.8630137 208.339041,59.8630137 C211.387557,59.8630137 213.458904,57.9692812 213.458904,54.974707 C213.458904,54.1789693 213.344127,53.4468147 212.998009,52.7739726 C212.768455,54.974707 210.87039,56.6245461 208.339041,56.6245461" id="Fill-9" fill="#FFFFFF"></path>
            </g>
        </g>
    </g>
</svg>