<svg width="156px" height="41px" viewBox="0 0 156 41" version="1.1" xmlns="http://www.w3.org/2000/svg" xmlns:xlink="http://www.w3.org/1999/xlink">
    <!-- Generator: Sketch 46.2 (44496) - http://www.bohemiancoding.com/sketch -->
    <desc>Created with Sketch.</desc>
    <defs>
        <polygon id="path-1" points="63.4048446 20.0980392 0.0183688983 20.0980392 0.0183688983 0.285026738 126.79132 0.285026738 126.79132 20.0980392"></polygon>
    </defs>
    <g id="Page-1" stroke="none" stroke-width="1" fill="none" fill-rule="evenodd">
        <g id="2_WhoAreYouBuyingFor" transform="translate(-21.000000, -21.000000)">
            <g id="redballoon-logo-horizontal-no-tagline" transform="translate(21.000000, 21.000000)">
                <g id="Group-3" transform="translate(0.000000, 20.901961)">
                    <mask id="mask-2" fill="white">
                        <use xlink:href="#path-1"></use>
                    </mask>
                    <g id="Clip-2"></g>
                    <path d="M121.68446,6.57084076 C119.915842,6.57084076 118.752478,7.24960636 118.170796,8.15462715 L118.170796,6.82267528 L114.682543,6.82267528 L114.682543,19.822148 L118.37316,19.822148 L118.37316,12.6051248 C118.37316,11.0456996 119.33416,9.9908571 120.799998,9.9908571 C122.215628,9.9908571 123.100396,10.9211527 123.100396,12.57985 L123.100396,19.822148 L126.79132,19.822148 L126.79132,11.8761141 C126.79132,8.50725639 124.693286,6.57084076 121.68446,6.57084076 L121.68446,6.57084076 Z M105.58259,9.71374777 C107.478873,9.71374777 108.793168,11.0456996 108.793168,13.335049 C108.793168,15.597601 107.478873,16.9304664 105.58259,16.9304664 C103.68692,16.9304664 102.372319,15.597601 102.372319,13.335049 C102.372319,11.0456996 103.68692,9.71374777 105.58259,9.71374777 L105.58259,9.71374777 Z M105.58259,6.57084076 C101.588273,6.57084076 98.6308808,9.2365716 98.6308808,13.335049 C98.6308808,17.4082516 101.588273,20.0980392 105.58259,20.0980392 C109.576907,20.0980392 112.5343,17.4082516 112.5343,13.335049 C112.5343,9.2365716 109.576907,6.57084076 105.58259,6.57084076 L105.58259,6.57084076 Z M89.9968863,9.71374777 C91.8922505,9.71374777 93.206239,11.0456996 93.206239,13.335049 C93.206239,15.597601 91.8922505,16.9304664 89.9968863,16.9304664 C88.1006038,16.9304664 86.7860029,15.597601 86.7860029,13.335049 C86.7860029,11.0456996 88.1006038,9.71374777 89.9968863,9.71374777 L89.9968863,9.71374777 Z M89.9968863,6.57084076 C86.0025694,6.57084076 83.0451768,9.2365716 83.0451768,13.335049 C83.0451768,17.4082516 86.0025694,20.0980392 89.9968863,20.0980392 C93.990591,20.0980392 96.9476775,17.4082516 96.9476775,13.335049 C96.9476775,9.2365716 93.990591,6.57084076 89.9968863,6.57084076 L89.9968863,6.57084076 Z M76.9534378,19.8215389 L80.6437495,19.8215389 L80.6437495,0.285026738 L76.9534378,0.285026738 L76.9534378,19.8215389 Z M70.176539,19.8215389 L73.8671568,19.8215389 L73.8671568,0.285026738 L70.176539,0.285026738 L70.176539,19.8215389 Z M63.442807,14.5917855 L63.442807,15.1444816 C63.442807,16.5275921 62.4309869,17.2572118 61.091588,17.2572118 C60.2065133,17.2572118 59.5749293,16.9304664 59.5749293,16.0753862 C59.5749293,15.1444816 60.3583628,14.7677956 61.4709058,14.717855 L63.442807,14.5917855 Z M61.698374,6.57084076 C58.3359471,6.57084076 56.2376067,8.93479649 56.2376067,11.2223188 L59.9288368,11.3736631 C59.9288368,10.5182784 60.4851082,9.66319816 61.7485823,9.66319816 C62.8862294,9.66319816 63.442807,10.3672386 63.442807,11.6751337 L63.442807,12.1781937 L61.1169983,12.3039587 C58.3359471,12.4291147 55.8840054,13.3600193 55.8840054,16.2517008 C55.8840054,18.7657828 57.6030281,20.0980392 60.2319236,20.0980392 C61.723172,20.0980392 62.8357149,19.5197638 63.5692463,18.7657828 L63.5692463,19.822148 L67.1331187,19.822148 L67.1331187,11.8008987 C67.1331187,8.38118687 65.2117319,6.57084076 61.698374,6.57084076 L61.698374,6.57084076 Z M47.17378,9.71374777 C49.0192419,9.71374777 50.3332305,11.0210339 50.3332305,13.335049 C50.3332305,15.6478461 49.0192419,16.9304664 47.17378,16.9304664 C45.3537283,16.9304664 44.0899481,15.7236705 44.0899481,13.6106358 L44.0899481,13.0329694 C44.0899481,10.9458185 45.3537283,9.71374777 47.17378,9.71374777 L47.17378,9.71374777 Z M44.0899481,0.285331254 L40.3993303,0.285331254 L40.3993303,19.822148 L43.8878902,19.822148 L43.8878902,18.488978 C44.5702948,19.3690285 45.9351039,20.0980392 47.7554617,20.0980392 C51.4714899,20.0980392 54.0740566,17.4082516 54.0740566,13.335049 C54.0740566,9.2365716 51.4714899,6.57084076 47.7554617,6.57084076 C46.0866473,6.57084076 44.7723527,7.175 44.0899481,7.95395128 L44.0899481,0.285331254 Z M30.5177814,9.71374777 C32.3381393,9.71374777 33.6019195,10.9458185 33.6019195,13.0329694 L33.6019195,13.6106358 C33.6019195,15.7236705 32.3381393,16.9304664 30.5177814,16.9304664 C28.6723195,16.9304664 27.3580248,15.6478461 27.3580248,13.335049 C27.3580248,11.0210339 28.6723195,9.71374777 30.5177814,9.71374777 L30.5177814,9.71374777 Z M37.2668208,19.822148 L37.2668208,0.285331254 L33.6019195,0.285331254 L33.6019195,7.95395128 C32.9195149,7.175 31.6049141,6.57084076 29.9116078,6.57084076 C26.2203777,6.57084076 23.6175048,9.2365716 23.6175048,13.335049 C23.6175048,17.4082516 26.2203777,20.0980392 29.9116078,20.0980392 C31.7567636,20.0980392 33.1215728,19.3690285 33.8042835,18.488978 L33.8042835,19.822148 L37.2668208,19.822148 Z M15.4240577,9.43724747 C17.0928721,9.43724747 17.901716,10.4680333 17.9779469,12.0524287 L12.7198498,12.0524287 C12.8208787,10.3931224 13.8571907,9.43724747 15.4240577,9.43724747 L15.4240577,9.43724747 Z M21.6936689,14.4915998 L21.6936689,13.0329694 C21.6936689,8.98443256 19.2160106,6.57084076 15.449468,6.57084076 C11.5570985,6.57084076 8.80115146,9.13577689 8.80115146,13.335049 C8.80115146,17.5084373 11.5570985,20.0980392 15.5508031,20.0980392 C18.6092247,20.0980392 21.1119871,18.3385472 21.5672296,15.8744058 L17.8512015,15.6983957 C17.5732188,16.6034165 16.7386586,17.1317513 15.449468,17.1317513 C13.7815721,17.1317513 12.7954684,16.1003565 12.7198498,14.4915998 L21.6936689,14.4915998 Z M7.15376743,6.69660576 C5.15706819,6.69660576 4.12075618,7.45058675 3.56448471,8.30566696 L3.56448471,6.82267528 L0,6.82267528 L0,19.822148 L3.69123011,19.822148 L3.69123011,13.2342543 C3.69123011,11.4488785 5.03032279,10.2420826 7.15376743,10.2420826 L7.39195081,10.2408645 L7.39072622,6.69995544 L7.15376743,6.69660576 L7.15376743,6.69660576 Z" id="Fill-1" fill="#DC3E38" mask="url(#mask-2)"></path>
                </g>
                <path d="M129.774985,14.3848407 C129.774985,7.27114942 135.55072,2.47569394 141.525619,2.47569394 C147.500826,2.47569394 153.276562,7.27114942 153.276562,14.3848407 C153.276562,15.5642511 153.116675,16.6646274 152.838032,17.6862745 C153.834157,15.9963456 154.391753,14.0708398 154.391753,11.8700873 C154.391753,5.1091512 148.616017,0 141.525619,0 C134.435529,0 128.659794,5.1091512 128.659794,11.8700873 C128.659794,14.0708398 129.218008,15.9963456 130.213515,17.6862745 C129.934563,16.6646274 129.774985,15.5642511 129.774985,14.3848407" id="Fill-4" fill="#9D2E2B"></path>
                <path d="M156,14.66444 C156,13.7562596 155.920436,12.8882316 155.761,12.0588235 C155.840873,20.2309147 149.261243,24.7313578 141.525618,29.0736432 C133.789685,24.7313578 127.210674,20.2309147 127.290547,12.0588235 C127.13111,12.8882316 127.051546,13.7562596 127.051546,14.66444 C127.051546,23.0333087 134.348797,27.1785101 139.491639,30.3766047 C137.378715,31.8374174 135.903228,33.3770023 135.903228,35.6276836 C135.903228,36.7323351 136.262348,37.7591337 136.860468,38.5882353 C136.661094,38.2326871 136.620539,37.7983666 136.620539,37.3640461 C136.620539,34.6398114 140.010814,32.5868271 141.525618,31.7194122 C143.040732,32.5868271 146.430079,34.6398114 146.430079,37.3640461 C146.430079,37.7983666 146.390452,38.2326871 146.191079,38.5882353 C146.788889,37.7591337 147.148318,36.7323351 147.148318,35.6276836 C147.148318,33.3770023 145.672832,31.8374174 143.559908,30.3766047 C148.70275,27.1785101 156,23.0333087 156,14.66444" id="Fill-5" fill="#DC3E38"></path>
                <path d="M141.927677,38.79648 C140.138838,38.79648 138.797287,37.6735727 138.635038,36.1764706 C138.390087,36.6339633 138.309278,37.1321364 138.309278,37.6735727 C138.309278,39.7114655 139.772989,41 141.927677,41 C144.082681,41 145.546392,39.7114655 145.546392,37.6735727 C145.546392,37.1321364 145.465583,36.6339633 145.220632,36.1764706 C145.058383,37.6735727 143.716832,38.79648 141.927677,38.79648" id="Fill-6" fill="#9D2E2B"></path>
            </g>
        </g>
    </g>
</svg>